<svg width="90" height="67" viewBox="0 0 90 67" fill="none" xmlns="http://www.w3.org/2000/svg">
  <path
    d="M87.0375 0.753056L67.6067 5.15394C65.6655 5.59334 65.0248 8.28548 66.5219 9.70827L72.5928 15.511C66.0778 23.3573 59.5565 31.1966 53.0415 39.0429C44.985 33.261 36.9285 27.4722 28.8656 21.6904C27.5398 20.7419 25.3131 21.0069 24.2537 22.346C16.4954 32.1312 8.74337 41.9233 0.985016 51.7155C-2.21856 55.7607 3.14188 61.7029 6.37083 57.6368C13.4568 48.6886 20.549 39.7403 27.6349 30.7851C35.6724 36.553 43.7099 42.3279 51.7474 48.0957C53.0986 49.0652 55.2682 48.7583 56.3593 47.4401C63.6863 38.6244 71.0132 29.8087 78.3402 20.993L84.7157 27.0817C86.2128 28.5114 88.5409 27.4374 88.6678 25.2613L89.9112 3.49402C90.0127 1.76435 88.5853 0.404333 87.0438 0.760031L87.0375 0.753056Z"
    fill="url(#paint0_linear_165474_1917)" />
  <g filter="url(#filter0_b_165474_1917)">
    <rect width="14.2913" height="55.0216" rx="2" transform="matrix(-1 0 0 1 62.5244 3.97852)"
      fill="url(#paint1_linear_165474_1917)" />
  </g>
  <g filter="url(#filter1_b_165474_1917)">
    <rect width="14.2913" height="44.5413" rx="2" transform="matrix(-1 0 0 1 41.6826 14.459)"
      fill="url(#paint2_linear_165474_1917)" />
  </g>
  <g filter="url(#filter2_di_165474_1917)">
    <rect width="14.2913" height="30.1309" rx="2" transform="matrix(-1 0 0 1 20.8418 28.8691)"
      fill="url(#paint3_linear_165474_1917)" shape-rendering="crispEdges" />
  </g>
  <defs>
    <filter id="filter0_b_165474_1917" x="36.2329" y="-8.02148" width="38.2915" height="79.0215"
      filterUnits="userSpaceOnUse" color-interpolation-filters="sRGB">
      <feFlood flood-opacity="0" result="BackgroundImageFix" />
      <feGaussianBlur in="BackgroundImageFix" stdDeviation="6" />
      <feComposite in2="SourceAlpha" operator="in" result="effect1_backgroundBlur_165474_1917" />
      <feBlend mode="normal" in="SourceGraphic" in2="effect1_backgroundBlur_165474_1917" result="shape" />
    </filter>
    <filter id="filter1_b_165474_1917" x="15.3911" y="2.45898" width="38.2915" height="68.541"
      filterUnits="userSpaceOnUse" color-interpolation-filters="sRGB">
      <feFlood flood-opacity="0" result="BackgroundImageFix" />
      <feGaussianBlur in="BackgroundImageFix" stdDeviation="6" />
      <feComposite in2="SourceAlpha" operator="in" result="effect1_backgroundBlur_165474_1917" />
      <feBlend mode="normal" in="SourceGraphic" in2="effect1_backgroundBlur_165474_1917" result="shape" />
    </filter>
    <filter id="filter2_di_165474_1917" x="2.55029" y="28.8691" width="22.2915" height="38.1309"
      filterUnits="userSpaceOnUse" color-interpolation-filters="sRGB">
      <feFlood flood-opacity="0" result="BackgroundImageFix" />
      <feColorMatrix in="SourceAlpha" type="matrix" values="0 0 0 0 0 0 0 0 0 0 0 0 0 0 0 0 0 0 127 0"
        result="hardAlpha" />
      <feOffset dy="4" />
      <feGaussianBlur stdDeviation="2" />
      <feComposite in2="hardAlpha" operator="out" />
      <feColorMatrix type="matrix" values="0 0 0 0 0 0 0 0 0 0 0 0 0 0 0 0 0 0 0.25 0" />
      <feBlend mode="normal" in2="BackgroundImageFix" result="effect1_dropShadow_165474_1917" />
      <feBlend mode="normal" in="SourceGraphic" in2="effect1_dropShadow_165474_1917" result="shape" />
      <feColorMatrix in="SourceAlpha" type="matrix" values="0 0 0 0 0 0 0 0 0 0 0 0 0 0 0 0 0 0 127 0"
        result="hardAlpha" />
      <feOffset dy="4" />
      <feGaussianBlur stdDeviation="6" />
      <feComposite in2="hardAlpha" operator="arithmetic" k2="-1" k3="1" />
      <feColorMatrix type="matrix" values="0 0 0 0 0 0 0 0 0 0 0 0 0 0 0 0 0 0 0.25 0" />
      <feBlend mode="normal" in2="shape" result="effect2_innerShadow_165474_1917" />
    </filter>
    <linearGradient id="paint0_linear_165474_1917" x1="74.2214" y1="-6.62007" x2="-15.724" y2="54.5843"
      gradientUnits="userSpaceOnUse">
      <stop stop-color="#FFA200" />
      <stop offset="1" stop-color="#D0531E" />
    </linearGradient>
    <linearGradient id="paint1_linear_165474_1917" x1="-5.36099" y1="-5.94202" x2="30.6447" y2="52.7354"
      gradientUnits="userSpaceOnUse">
      <stop stop-color="white" />
      <stop offset="1" stop-color="white" stop-opacity="0" />
    </linearGradient>
    <linearGradient id="paint2_linear_165474_1917" x1="-5.36099" y1="-4.81021" x2="20.6908" y2="47.6351"
      gradientUnits="userSpaceOnUse">
      <stop stop-color="white" />
      <stop offset="1" stop-color="white" stop-opacity="0" />
    </linearGradient>
    <linearGradient id="paint3_linear_165474_1917" x1="-5.36099" y1="-3.25396" x2="7.99426" y2="36.4902"
      gradientUnits="userSpaceOnUse">
      <stop stop-color="white" />
      <stop offset="1" stop-color="white" stop-opacity="0" />
    </linearGradient>
  </defs>
</svg>
