<svg width="86" height="69" viewBox="0 0 86 69" fill="none" xmlns="http://www.w3.org/2000/svg">
<g filter="url(#filter0_d_166262_1059)">
<path d="M68.4857 13.8926L59.7853 4.92955C57.774 2.85683 54.458 2.86411 52.4908 4.94659L43.6756 14.2581C42.7603 15.2219 42.2627 16.5181 42.2977 17.8592L42.9962 48.1784C43.0635 50.9866 45.3815 53.2347 48.1812 53.1869L65.7018 52.9183C68.4963 52.8735 70.7152 50.5628 70.6449 47.7495L69.9361 17.3533C69.9066 16.0573 69.3861 14.8238 68.4857 13.8926ZM57.9908 11.556C57.1187 12.322 55.7845 12.2285 55.0149 11.3461C54.2453 10.4637 54.3276 9.12401 55.1967 8.35274C56.0658 7.58148 57.4029 7.68017 58.1776 8.55962C58.9524 9.43908 58.865 10.7817 57.9959 11.553L57.9908 11.556Z" fill="url(#paint0_linear_166262_1059)"/>
<path d="M48.4 29.6341C48.4 28.8875 48.5533 28.2408 48.86 27.6941C49.18 27.1341 49.6133 26.7075 50.16 26.4141C50.7067 26.1075 51.3133 25.9541 51.98 25.9541C52.66 25.9541 53.2667 26.1075 53.8 26.4141C54.3467 26.7075 54.7733 27.1341 55.08 27.6941C55.4 28.2408 55.56 28.8875 55.56 29.6341C55.56 30.3808 55.4 31.0341 55.08 31.5941C54.7733 32.1408 54.3467 32.5675 53.8 32.8741C53.2667 33.1675 52.66 33.3141 51.98 33.3141C51.3133 33.3141 50.7067 33.1675 50.16 32.8741C49.6133 32.5675 49.18 32.1408 48.86 31.5941C48.5533 31.0341 48.4 30.3808 48.4 29.6341ZM50.5 29.6341C50.5 30.2075 50.64 30.6475 50.92 30.9541C51.2133 31.2608 51.5667 31.4141 51.98 31.4141C52.3933 31.4141 52.74 31.2608 53.02 30.9541C53.3133 30.6475 53.46 30.2075 53.46 29.6341C53.46 29.0608 53.3133 28.6208 53.02 28.3141C52.74 28.0075 52.3933 27.8541 51.98 27.8541C51.5667 27.8541 51.2133 28.0075 50.92 28.3141C50.64 28.6208 50.5 29.0608 50.5 29.6341ZM51.02 39.9941L60.02 26.1941H62.82L53.82 39.9941H51.02ZM58.28 36.5541C58.28 35.8075 58.4333 35.1608 58.74 34.6141C59.06 34.0541 59.4933 33.6275 60.04 33.3341C60.5867 33.0275 61.1933 32.8741 61.86 32.8741C62.54 32.8741 63.1467 33.0275 63.68 33.3341C64.2267 33.6275 64.6533 34.0541 64.96 34.6141C65.28 35.1608 65.44 35.8075 65.44 36.5541C65.44 37.3008 65.28 37.9541 64.96 38.5141C64.6533 39.0608 64.2267 39.4875 63.68 39.7941C63.1467 40.0875 62.54 40.2341 61.86 40.2341C61.1933 40.2341 60.5867 40.0875 60.04 39.7941C59.4933 39.4875 59.06 39.0608 58.74 38.5141C58.4333 37.9541 58.28 37.3008 58.28 36.5541ZM60.38 36.5541C60.38 37.1275 60.52 37.5675 60.8 37.8741C61.0933 38.1808 61.4467 38.3341 61.86 38.3341C62.2733 38.3341 62.62 38.1808 62.9 37.8741C63.1933 37.5675 63.34 37.1275 63.34 36.5541C63.34 35.9808 63.1933 35.5408 62.9 35.2341C62.62 34.9275 62.2733 34.7741 61.86 34.7741C61.4467 34.7741 61.0933 34.9275 60.8 35.2341C60.52 35.5408 60.38 35.9808 60.38 36.5541Z" fill="#480AAB"/>
<g filter="url(#filter1_bi_166262_1059)">
<path fill-rule="evenodd" clip-rule="evenodd" d="M38.4456 23.019L38.4455 27.8402H44.3445C46.4493 27.8402 48 29.5661 48 31.6985V39.8073C48 40.0301 47.949 43.3138 48 44.0507V57.3138C48 59.3486 46.3093 60.998 44.2866 60.998H7.66242C5.63973 60.998 4 59.3486 4 57.3138V31.5244C4 29.4896 5.63973 27.8402 7.66242 27.8402H13.7121L13.7123 23.019C13.7123 20.8005 15.4867 18.998 17.6811 18.998H34.4768C36.6665 18.998 38.4456 20.7957 38.4456 23.019ZM16.4257 27.8402L16.4258 23.019C16.4258 22.3162 16.9921 21.7424 17.6858 21.7424H34.4768C35.1705 21.7424 35.7368 22.3162 35.7368 23.019L35.7367 27.8402H16.4257Z" fill="url(#paint1_linear_166262_1059)" fill-opacity="0.85"/>
</g>
</g>
<defs>
<filter id="filter0_d_166262_1059" x="0" y="3.37891" width="74.6465" height="65.6191" filterUnits="userSpaceOnUse" color-interpolation-filters="sRGB">
<feFlood flood-opacity="0" result="BackgroundImageFix"/>
<feColorMatrix in="SourceAlpha" type="matrix" values="0 0 0 0 0 0 0 0 0 0 0 0 0 0 0 0 0 0 127 0" result="hardAlpha"/>
<feOffset dy="4"/>
<feGaussianBlur stdDeviation="2"/>
<feComposite in2="hardAlpha" operator="out"/>
<feColorMatrix type="matrix" values="0 0 0 0 0 0 0 0 0 0 0 0 0 0 0 0 0 0 0.25 0"/>
<feBlend mode="normal" in2="BackgroundImageFix" result="effect1_dropShadow_166262_1059"/>
<feBlend mode="normal" in="SourceGraphic" in2="effect1_dropShadow_166262_1059" result="shape"/>
</filter>
<filter id="filter1_bi_166262_1059" x="0" y="14.998" width="52" height="50" filterUnits="userSpaceOnUse" color-interpolation-filters="sRGB">
<feFlood flood-opacity="0" result="BackgroundImageFix"/>
<feGaussianBlur in="BackgroundImageFix" stdDeviation="2"/>
<feComposite in2="SourceAlpha" operator="in" result="effect1_backgroundBlur_166262_1059"/>
<feBlend mode="normal" in="SourceGraphic" in2="effect1_backgroundBlur_166262_1059" result="shape"/>
<feColorMatrix in="SourceAlpha" type="matrix" values="0 0 0 0 0 0 0 0 0 0 0 0 0 0 0 0 0 0 127 0" result="hardAlpha"/>
<feOffset dy="2"/>
<feGaussianBlur stdDeviation="2"/>
<feComposite in2="hardAlpha" operator="arithmetic" k2="-1" k3="1"/>
<feColorMatrix type="matrix" values="0 0 0 0 0.941667 0 0 0 0 0.910278 0 0 0 0 0.910278 0 0 0 0.25 0"/>
<feBlend mode="normal" in2="shape" result="effect2_innerShadow_166262_1059"/>
</filter>
<linearGradient id="paint0_linear_166262_1059" x1="40.1714" y1="-1.7639" x2="72.7264" y2="67.5225" gradientUnits="userSpaceOnUse">
<stop stop-color="#7A00FF"/>
<stop offset="0.32" stop-color="#7700FC"/>
<stop offset="0.5" stop-color="#6F03F6"/>
<stop offset="0.65" stop-color="#6107EA"/>
<stop offset="0.78" stop-color="#4D0DD9"/>
<stop offset="0.9" stop-color="#3415C4"/>
<stop offset="1" stop-color="#161FAB"/>
</linearGradient>
<linearGradient id="paint1_linear_166262_1059" x1="10.9586" y1="20.4717" x2="32.7586" y2="57.5696" gradientUnits="userSpaceOnUse">
<stop stop-color="#D9D9D9"/>
<stop offset="1" stop-color="#D9D9D9" stop-opacity="0.35"/>
</linearGradient>
</defs>
</svg>
