<svg width="18" height="10" viewBox="0 0 18 10" fill="none" xmlns="http://www.w3.org/2000/svg">
<path id="Vector" d="M9.00268 10C8.6831 10 8.41992 9.8886 8.21313 9.66581L0.317697 1.86804C0.0733147 1.66381 -0.0300778 1.40388 0.00751946 1.08826C0.00751946 0.80977 0.110912 0.549844 0.317697 0.308484C0.543281 0.122823 0.815862 0.020709 1.13544 0.00214291C1.45502 -0.0164232 1.7088 0.0856905 1.89678 0.308484L9.00268 7.29863L16.1086 0.308484C16.3154 0.0856905 16.5738 -0.0164232 16.884 0.00214291C17.1942 0.020709 17.4527 0.132106 17.6595 0.336333C17.8662 0.540561 17.979 0.795845 17.9978 1.10219C18.0166 1.40853 17.9132 1.66381 17.6877 1.86804L9.79222 9.66581C9.60423 9.8886 9.34105 10 9.00268 10Z" fill="#DDDDDD"/>
</svg>
