<svg width="57" height="69" viewBox="0 0 57 69" fill="none" xmlns="http://www.w3.org/2000/svg">
  <path fill-rule="evenodd" clip-rule="evenodd"
    d="M23.8127 5.76742C22.8866 6.85706 23.0192 8.49115 24.1088 9.41728C28.8128 13.4154 30.2528 16.919 30.4127 20.1628C30.5841 23.6409 29.3327 27.2128 27.7019 31.5554C27.6382 31.7249 27.5741 31.8954 27.5095 32.067C25.9865 36.1148 24.2443 40.7452 23.9618 45.8009C23.6593 51.2169 25.0218 56.9817 29.5487 63.2069C30.3898 64.3634 32.0091 64.6192 33.1657 63.7782C34.3223 62.9371 34.578 61.3177 33.737 60.1612C29.8907 54.872 28.8984 50.2787 29.1324 46.0898C29.3697 41.8416 30.8607 37.8727 32.4523 33.6361C32.4848 33.5495 32.5173 33.4628 32.5499 33.376C34.112 29.2164 35.8181 24.6359 35.585 19.9079C35.3404 14.9457 33.0139 10.1897 27.4626 5.47137C26.373 4.54524 24.7389 4.67779 23.8127 5.76742Z"
    fill="url(#paint0_linear_165474_1930)" />
  <path fill-rule="evenodd" clip-rule="evenodd"
    d="M23.8127 5.76742C22.8866 6.85706 23.0192 8.49115 24.1088 9.41728C28.8128 13.4154 30.2528 16.919 30.4127 20.1628C30.5841 23.6409 29.3327 27.2128 27.7019 31.5554C27.6382 31.7249 27.5741 31.8954 27.5095 32.067C25.9865 36.1148 24.2443 40.7452 23.9618 45.8009C23.6593 51.2169 25.0218 56.9817 29.5487 63.2069C30.3898 64.3634 32.0091 64.6192 33.1657 63.7782C34.3223 62.9371 34.578 61.3177 33.737 60.1612C29.8907 54.872 28.8984 50.2787 29.1324 46.0898C29.3697 41.8416 30.8607 37.8727 32.4523 33.6361C32.4848 33.5495 32.5173 33.4628 32.5499 33.376C34.112 29.2164 35.8181 24.6359 35.585 19.9079C35.3404 14.9457 33.0139 10.1897 27.4626 5.47137C26.373 4.54524 24.7389 4.67779 23.8127 5.76742Z"
    fill="url(#paint1_linear_165474_1930)" />
  <g filter="url(#filter0_dii_165474_1930)">
    <path
      d="M33.1508 20.8952C34.131 20.2276 34.2404 18.7752 33.3732 17.9423C32.8319 17.4224 32.0447 17.2917 31.3807 17.6116L15.8103 25.1132C13.444 26.2532 13.4776 29.766 15.8656 30.8954C16.8221 31.3477 17.9308 31.2614 18.8041 30.6666L33.1508 20.8952Z"
      fill="url(#paint2_linear_165474_1930)" fill-opacity="0.55" />
  </g>
  <g filter="url(#filter1_dii_165474_1930)">
    <path
      d="M30.035 13.7825C31.2154 13.1922 31.3075 11.4797 30.1975 10.7611C29.7812 10.4915 29.2711 10.428 28.8046 10.5874L11.0194 16.6671C9.1353 17.3112 8.41871 19.694 9.61555 21.3353C10.4426 22.4694 11.9233 22.84 13.1587 22.2222L30.035 13.7825Z"
      fill="url(#paint3_linear_165474_1930)" fill-opacity="0.55" />
  </g>
  <path fill-rule="evenodd" clip-rule="evenodd"
    d="M7.49972 11.9996C8.92087 11.8404 10.5172 13.482 10.6764 14.9031C11.3637 21.0384 13.4647 24.1902 16.0655 26.1354C18.8542 28.2211 22.5157 29.1791 27.0284 30.2532C27.2045 30.2951 27.3818 30.3372 27.5601 30.3795C31.7681 31.3782 36.5816 32.5207 40.9323 35.1115C45.593 37.8869 49.6125 42.2381 52.2456 49.4707C52.7348 50.8145 52.0421 52.3004 50.6983 52.7896C49.3546 53.2788 47.8686 52.5861 47.3794 51.2423C45.1422 45.0971 41.8874 41.7075 38.2827 39.5609C34.6269 37.384 30.5023 36.4028 26.0995 35.3553C26.0095 35.3339 25.9195 35.3125 25.8293 35.2911C21.5068 34.2622 15.2244 34.1376 11.4337 31.3025C7.45508 28.3269 4.81081 23.7399 3.99975 16.4996C3.77571 14.4998 4.99972 11.9996 7.49972 11.9996Z"
    fill="url(#paint4_linear_165474_1930)" />
  <g filter="url(#filter2_bdi_165474_1930)">
    <path
      d="M25.2833 47.5169C24.3031 48.1845 24.1937 49.6369 25.0609 50.4698C25.6021 50.9897 26.3894 51.1204 27.0534 50.8005L42.6238 43.2989C44.9901 42.1589 44.9565 38.6461 42.5684 37.5167C41.612 37.0644 40.5032 37.1507 39.63 37.7455L25.2833 47.5169Z"
      fill="url(#paint5_linear_165474_1930)" fill-opacity="0.55" />
  </g>
  <g filter="url(#filter3_dii_165474_1930)">
    <path
      d="M28.7311 53.4753C27.5507 54.0657 27.4586 55.7781 28.5686 56.4968C28.985 56.7663 29.495 56.8299 29.9615 56.6704L47.7467 50.5907C49.6308 49.9466 50.3474 47.5638 49.1506 45.9226C48.3235 44.7885 46.8428 44.4178 45.6074 45.0356L28.7311 53.4753Z"
      fill="url(#paint6_linear_165474_1930)" fill-opacity="0.55" />
  </g>
  <path
    d="M26.0246 36.158C25.0149 39.1445 23.4996 41.5002 22.9996 46.0903C22.4996 52.5002 24.0596 57.2711 28.5865 63.4963C29.4275 64.6528 31.843 65.3414 32.9996 64.5004C34.4996 63.5004 34.5779 61.3182 33.7369 60.1616C29.8906 54.8724 28.8983 50.2792 29.1323 46.0902C29.298 43.1239 30.075 40.2938 31.0706 37.4136L26.0246 36.158Z"
    fill="url(#paint7_linear_165474_1930)" />
  <defs>
    <filter id="filter0_dii_165474_1930" x="14.0547" y="17.4375" width="20.9058" height="17.7441"
      filterUnits="userSpaceOnUse" color-interpolation-filters="sRGB">
      <feFlood flood-opacity="0" result="BackgroundImageFix" />
      <feColorMatrix in="SourceAlpha" type="matrix" values="0 0 0 0 0 0 0 0 0 0 0 0 0 0 0 0 0 0 127 0"
        result="hardAlpha" />
      <feOffset />
      <feColorMatrix type="matrix" values="0 0 0 0 1 0 0 0 0 1 0 0 0 0 1 0 0 0 0.25 0" />
      <feBlend mode="normal" in2="BackgroundImageFix" result="effect1_dropShadow_165474_1930" />
      <feBlend mode="normal" in="SourceGraphic" in2="effect1_dropShadow_165474_1930" result="shape" />
      <feColorMatrix in="SourceAlpha" type="matrix" values="0 0 0 0 0 0 0 0 0 0 0 0 0 0 0 0 0 0 127 0"
        result="hardAlpha" />
      <feOffset dy="4" />
      <feGaussianBlur stdDeviation="3" />
      <feComposite in2="hardAlpha" operator="arithmetic" k2="-1" k3="1" />
      <feColorMatrix type="matrix" values="0 0 0 0 0 0 0 0 0 0 0 0 0 0 0 0 0 0 0.25 0" />
      <feBlend mode="normal" in2="shape" result="effect2_innerShadow_165474_1930" />
      <feColorMatrix in="SourceAlpha" type="matrix" values="0 0 0 0 0 0 0 0 0 0 0 0 0 0 0 0 0 0 127 0"
        result="hardAlpha" />
      <feOffset dx="1" dy="1" />
      <feGaussianBlur stdDeviation="2.5" />
      <feComposite in2="hardAlpha" operator="arithmetic" k2="-1" k3="1" />
      <feColorMatrix type="matrix" values="0 0 0 0 1 0 0 0 0 1 0 0 0 0 1 0 0 0 0.25 0" />
      <feBlend mode="normal" in2="effect2_innerShadow_165474_1930"
        result="effect3_innerShadow_165474_1930" />
    </filter>
    <filter id="filter1_dii_165474_1930" x="9.02881" y="10.502" width="22.9492" height="16.0176"
      filterUnits="userSpaceOnUse" color-interpolation-filters="sRGB">
      <feFlood flood-opacity="0" result="BackgroundImageFix" />
      <feColorMatrix in="SourceAlpha" type="matrix" values="0 0 0 0 0 0 0 0 0 0 0 0 0 0 0 0 0 0 127 0"
        result="hardAlpha" />
      <feOffset />
      <feColorMatrix type="matrix" values="0 0 0 0 1 0 0 0 0 1 0 0 0 0 1 0 0 0 0.25 0" />
      <feBlend mode="normal" in2="BackgroundImageFix" result="effect1_dropShadow_165474_1930" />
      <feBlend mode="normal" in="SourceGraphic" in2="effect1_dropShadow_165474_1930" result="shape" />
      <feColorMatrix in="SourceAlpha" type="matrix" values="0 0 0 0 0 0 0 0 0 0 0 0 0 0 0 0 0 0 127 0"
        result="hardAlpha" />
      <feOffset dy="4" />
      <feGaussianBlur stdDeviation="3" />
      <feComposite in2="hardAlpha" operator="arithmetic" k2="-1" k3="1" />
      <feColorMatrix type="matrix" values="0 0 0 0 0 0 0 0 0 0 0 0 0 0 0 0 0 0 0.25 0" />
      <feBlend mode="normal" in2="shape" result="effect2_innerShadow_165474_1930" />
      <feColorMatrix in="SourceAlpha" type="matrix" values="0 0 0 0 0 0 0 0 0 0 0 0 0 0 0 0 0 0 127 0"
        result="hardAlpha" />
      <feOffset dx="1" dy="1" />
      <feGaussianBlur stdDeviation="2.5" />
      <feComposite in2="hardAlpha" operator="arithmetic" k2="-1" k3="1" />
      <feColorMatrix type="matrix" values="0 0 0 0 1 0 0 0 0 1 0 0 0 0 1 0 0 0 0.25 0" />
      <feBlend mode="normal" in2="effect2_innerShadow_165474_1930"
        result="effect3_innerShadow_165474_1930" />
    </filter>
    <filter id="filter2_bdi_165474_1930" x="18.4736" y="31.2305" width="31.9058" height="25.7441"
      filterUnits="userSpaceOnUse" color-interpolation-filters="sRGB">
      <feFlood flood-opacity="0" result="BackgroundImageFix" />
      <feGaussianBlur in="BackgroundImageFix" stdDeviation="3" />
      <feComposite in2="SourceAlpha" operator="in" result="effect1_backgroundBlur_165474_1930" />
      <feColorMatrix in="SourceAlpha" type="matrix" values="0 0 0 0 0 0 0 0 0 0 0 0 0 0 0 0 0 0 127 0"
        result="hardAlpha" />
      <feOffset />
      <feColorMatrix type="matrix" values="0 0 0 0 1 0 0 0 0 1 0 0 0 0 1 0 0 0 0.25 0" />
      <feBlend mode="normal" in2="effect1_backgroundBlur_165474_1930"
        result="effect2_dropShadow_165474_1930" />
      <feBlend mode="normal" in="SourceGraphic" in2="effect2_dropShadow_165474_1930" result="shape" />
      <feColorMatrix in="SourceAlpha" type="matrix" values="0 0 0 0 0 0 0 0 0 0 0 0 0 0 0 0 0 0 127 0"
        result="hardAlpha" />
      <feOffset dx="1" dy="1" />
      <feGaussianBlur stdDeviation="2.5" />
      <feComposite in2="hardAlpha" operator="arithmetic" k2="-1" k3="1" />
      <feColorMatrix type="matrix" values="0 0 0 0 1 0 0 0 0 1 0 0 0 0 1 0 0 0 0.25 0" />
      <feBlend mode="normal" in2="shape" result="effect3_innerShadow_165474_1930" />
    </filter>
    <filter id="filter3_dii_165474_1930" x="27.7881" y="44.7383" width="22.9492" height="16.0176"
      filterUnits="userSpaceOnUse" color-interpolation-filters="sRGB">
      <feFlood flood-opacity="0" result="BackgroundImageFix" />
      <feColorMatrix in="SourceAlpha" type="matrix" values="0 0 0 0 0 0 0 0 0 0 0 0 0 0 0 0 0 0 127 0"
        result="hardAlpha" />
      <feOffset />
      <feColorMatrix type="matrix" values="0 0 0 0 1 0 0 0 0 1 0 0 0 0 1 0 0 0 0.25 0" />
      <feBlend mode="normal" in2="BackgroundImageFix" result="effect1_dropShadow_165474_1930" />
      <feBlend mode="normal" in="SourceGraphic" in2="effect1_dropShadow_165474_1930" result="shape" />
      <feColorMatrix in="SourceAlpha" type="matrix" values="0 0 0 0 0 0 0 0 0 0 0 0 0 0 0 0 0 0 127 0"
        result="hardAlpha" />
      <feOffset dy="4" />
      <feGaussianBlur stdDeviation="3" />
      <feComposite in2="hardAlpha" operator="arithmetic" k2="-1" k3="1" />
      <feColorMatrix type="matrix" values="0 0 0 0 0 0 0 0 0 0 0 0 0 0 0 0 0 0 0.25 0" />
      <feBlend mode="normal" in2="shape" result="effect2_innerShadow_165474_1930" />
      <feColorMatrix in="SourceAlpha" type="matrix" values="0 0 0 0 0 0 0 0 0 0 0 0 0 0 0 0 0 0 127 0"
        result="hardAlpha" />
      <feOffset dx="1" dy="1" />
      <feGaussianBlur stdDeviation="2.5" />
      <feComposite in2="hardAlpha" operator="arithmetic" k2="-1" k3="1" />
      <feColorMatrix type="matrix" values="0 0 0 0 1 0 0 0 0 1 0 0 0 0 1 0 0 0 0.25 0" />
      <feBlend mode="normal" in2="effect2_innerShadow_165474_1930"
        result="effect3_innerShadow_165474_1930" />
    </filter>
    <linearGradient id="paint0_linear_165474_1930" x1="32.7474" y1="1.15386" x2="37.3457" y2="78.6338"
      gradientUnits="userSpaceOnUse">
      <stop stop-color="#55BE42" />
      <stop offset="1" stop-color="#19640B" />
    </linearGradient>
    <linearGradient id="paint1_linear_165474_1930" x1="32.7474" y1="1.15386" x2="37.3457" y2="78.6338"
      gradientUnits="userSpaceOnUse">
      <stop stop-color="#55BE42" />
      <stop offset="1" stop-color="#19640B" />
    </linearGradient>
    <linearGradient id="paint2_linear_165474_1930" x1="18.6929" y1="19.7397" x2="13.9345" y2="25.4491"
      gradientUnits="userSpaceOnUse">
      <stop stop-color="#FFFDFD" />
      <stop offset="1" stop-color="#F1F1F1" />
    </linearGradient>
    <linearGradient id="paint3_linear_165474_1930" x1="15.0613" y1="11.3291" x2="9.62756" y2="16.4001"
      gradientUnits="userSpaceOnUse">
      <stop stop-color="#FFFDFD" />
      <stop offset="1" stop-color="white" />
    </linearGradient>
    <linearGradient id="paint4_linear_165474_1930" x1="-1.00355" y1="17.4498" x2="60.6828" y2="64.5569"
      gradientUnits="userSpaceOnUse">
      <stop stop-color="#74FF59" />
      <stop offset="1" stop-color="#19640B" />
    </linearGradient>
    <linearGradient id="paint5_linear_165474_1930" x1="39.7412" y1="48.6724" x2="44.4996" y2="42.963"
      gradientUnits="userSpaceOnUse">
      <stop stop-color="#FFFDFD" />
      <stop offset="1" stop-color="#F1F1F1" />
    </linearGradient>
    <linearGradient id="paint6_linear_165474_1930" x1="43.7048" y1="55.9287" x2="49.1386" y2="50.8577"
      gradientUnits="userSpaceOnUse">
      <stop stop-color="#FFFDFD" />
      <stop offset="1" stop-color="white" />
    </linearGradient>
    <linearGradient id="paint7_linear_165474_1930" x1="32.7473" y1="1.15423" x2="37.3455" y2="78.6342"
      gradientUnits="userSpaceOnUse">
      <stop stop-color="#55BE42" />
      <stop offset="1" stop-color="#19640B" />
    </linearGradient>
  </defs>
</svg>
