<svg width="15" height="8" viewBox="0 0 15 8" fill="none" xmlns="http://www.w3.org/2000/svg">
<path id="Vector" d="M7.3303 0C7.07009 0 6.8558 0.0891174 6.68743 0.267352L0.258681 6.50557C0.0596955 6.66895 -0.0244905 6.87689 0.00612262 7.12939C0.00612262 7.35219 0.0903086 7.56013 0.258681 7.75321C0.442359 7.90174 0.664304 7.98343 0.924515 7.99829C1.18473 8.01314 1.39136 7.93145 1.54443 7.75321L7.3303 2.1611L13.1162 7.75321C13.2845 7.93145 13.495 8.01314 13.7476 7.99829C14.0001 7.98343 14.2106 7.89432 14.379 7.73093C14.5473 7.56755 14.6392 7.36333 14.6545 7.11825C14.6698 6.87318 14.5856 6.66895 14.4019 6.50557L7.97318 0.267352C7.82011 0.0891174 7.60582 0 7.3303 0Z" fill="#DDDDDD"/>
</svg>
